<svg xmlns="http://www.w3.org/2000/svg" version="1.1" xmlns:xlink="http://www.w3.org/1999/xlink" xmlns:svgjs="http://svgjs.dev/svgjs" viewBox="0 0 800 800"><defs><filter id="bbburst-blur-1" x="-100%" y="-100%" width="400%" height="400%"><feGaussianBlur in="SourceGraphic" stdDeviation="1"></feGaussianBlur></filter><filter id="bbburst-blur-2" x="-100%" y="-100%" width="400%" height="400%"><feGaussianBlur in="SourceGraphic" stdDeviation="2"></feGaussianBlur></filter><filter id="bbburst-blur-3" x="-100%" y="-100%" width="400%" height="400%"><feGaussianBlur in="SourceGraphic" stdDeviation="4"></feGaussianBlur></filter><filter id="bbburst-blur-4" x="-100%" y="-100%" width="400%" height="400%"><feGaussianBlur in="SourceGraphic" stdDeviation="12"></feGaussianBlur></filter><symbol id="bbburst-shape-1" viewBox="0 0 194 167"><path d="m97 0 96.129 166.5H.871L97 0Z"></path></symbol><symbol id="bbburst-shape-2" viewBox="0 0 126 115"><path d="m63 0 62.77 43.877-23.976 70.996H24.206L.23 43.877 63 0Z"></path></symbol><symbol id="bbburst-shape-3" viewBox="0 0 131 127"><path d="m66 0 66 63.5L66 127 0 63.5 66 0Z"></path></symbol><symbol id="bbburst-shape-5" viewBox="0 0 145 145"><circle cx="72.5" cy="72.5" r="72.5"></circle></symbol><symbol id="bbburst-shape-9" viewBox="0 0 182 172"><path d="M13.5809 69.845 91 13.5967l77.419 56.2483-29.571 91.012H43.1524L13.5809 69.845Z" stroke-width="22"></path></symbol><symbol id="bbburst-shape-10" viewBox="0 0 145 145"><circle cx="72.5" cy="72.5" r="61.5" fill="none" stroke-width="22"></circle></symbol><symbol id="bbburst-shape-13" viewBox="0 0 159 159"><path stroke-width="22" d="M11 11h137v137H11z"></path></symbol></defs><use xlink:href="#bbburst-shape-1" width="38.554275145192086" opacity="0.11995236351631888" transform="matrix(1.0944769372040632,0.6038379202471577,-0.6038379202471577,1.0944769372040632,269.5341619749904,134.25717510478108)" fill="#db1f1f" filter="url(#bbburst-blur-3)"></use><use xlink:href="#bbburst-shape-5" width="24.358160937835475" opacity="0.684055814440719" transform="matrix(0.9962823002830071,-0.08614858178054995,0.08614858178054995,0.9962823002830071,306.64321437728415,136.80047068845022)" fill="#db1f1f" filter="url(#bbburst-blur-1)"></use><use xlink:href="#bbburst-shape-9" width="26.789097807033404" opacity="0.4900921277919904" transform="matrix(0.8447155906939442,-0.5352154433857275,0.5352154433857275,0.8447155906939442,124.15425899243434,-154.73643111150656)" fill="none" stroke="#db1f1f" filter="url(#bbburst-blur-2)"></use><use xlink:href="#bbburst-shape-2" width="44.30216141564526" opacity="0.1843998647188161" transform="matrix(1.2423640548710235,0.13795490264730897,-0.13795490264730897,1.2423640548710235,696.9534458894182,149.3940900623653)" fill="#db1f1f" filter="url(#bbburst-blur-3)"></use><use xlink:href="#bbburst-shape-9" width="33.69668454640706" opacity="0.7173980001307636" transform="matrix(0.7164905958827588,-0.6975967502874202,0.6975967502874202,0.7164905958827588,224.47223621950457,177.68632714465247)" fill="none" stroke="#db1f1f" filter="url(#bbburst-blur-1)"></use><use xlink:href="#bbburst-shape-1" width="48.37252333364257" opacity="0.2972041696272013" transform="matrix(1.1972750771259344,0.35921078727272066,-0.35921078727272066,1.1972750771259344,380.45610390389123,198.8271458688991)" fill="#db1f1f" filter="url(#bbburst-blur-3)"></use><use xlink:href="#bbburst-shape-10" width="39.26364519689265" opacity="0.201898111475459" transform="matrix(1.2471299310552395,0.0846577525460808,-0.0846577525460808,1.2471299310552395,152.46803779566915,-351.4763855969863)" fill="none" stroke="#db1f1f" filter="url(#bbburst-blur-3)"></use><use xlink:href="#bbburst-shape-9" width="34.27336841356775" opacity="0.10445816017445764" transform="matrix(1.3698224188584072,1.0890760032214934,-1.0890760032214934,1.3698224188584072,1170.3269495600273,18.288326151081833)" fill="none" stroke="#db1f1f" filter="url(#bbburst-blur-4)"></use><use xlink:href="#bbburst-shape-3" width="40.87541879086098" opacity="0.32860672413109193" transform="matrix(1.0307172554333819,0.7071930000727357,-0.7071930000727357,1.0307172554333819,935.2059447838681,101.4004811027097)" fill="#db1f1f" filter="url(#bbburst-blur-3)"></use><use xlink:href="#bbburst-shape-9" width="44.920874447283644" opacity="-0.06602324797948067" transform="matrix(1.6430146597242972,-0.6024971601020642,0.6024971601020642,1.6430146597242972,463.4946743848268,92.64648703751277)" fill="none" stroke="#db1f1f" filter="url(#bbburst-blur-4)"></use><use xlink:href="#bbburst-shape-2" width="32.86012134541646" opacity="0.3902405643202884" transform="matrix(0.8278363614681971,-0.5609696592785537,0.5609696592785537,0.8278363614681971,436.4112252077565,78.64598758601875)" fill="#db1f1f" filter="url(#bbburst-blur-2)"></use><use xlink:href="#bbburst-shape-2" width="39.53040718813947" opacity="0.25535005414479783" transform="matrix(1.0723237270594053,0.642356462087388,-0.642356462087388,1.0723237270594053,304.55602591470796,-92.66707010872881)" fill="#db1f1f" filter="url(#bbburst-blur-3)"></use><use xlink:href="#bbburst-shape-5" width="35.89635554034341" opacity="0.5879971001978173" transform="matrix(0.8171416101909891,-0.5764369773830247,0.5764369773830247,0.8171416101909891,339.319250423069,101.12890099347072)" fill="#db1f1f" filter="url(#bbburst-blur-1)"></use><use xlink:href="#bbburst-shape-1" width="52.67691343878867" opacity="-0.07303095020309236" transform="matrix(1.4574381186994314,-0.9686971302537557,0.9686971302537557,1.4574381186994314,313.96217611830883,-500.46494486446136)" fill="#db1f1f" filter="url(#bbburst-blur-4)"></use><use xlink:href="#bbburst-shape-10" width="42.75326264554722" opacity="0.20812504948609178" transform="matrix(1.2180087904179375,-0.280988587783619,0.280988587783619,1.2180087904179375,3.5870396837977125,164.62185941559187)" fill="none" stroke="#db1f1f" filter="url(#bbburst-blur-3)"></use><use xlink:href="#bbburst-shape-5" width="21.236564184422775" opacity="0.7738606850618548" transform="matrix(0.9978488143993669,-0.0655571781102411,0.0655571781102411,0.9978488143993669,306.71571649087826,-83.10298226707869)" fill="#db1f1f" filter="url(#bbburst-blur-1)"></use><use xlink:href="#bbburst-shape-5" width="31.95446105812652" opacity="0.5745782001661699" transform="matrix(0.9999343628916165,-0.011457308084226086,0.011457308084226086,0.9999343628916165,198.60506655860388,63.03932844136597)" fill="#db1f1f" filter="url(#bbburst-blur-1)"></use><use xlink:href="#bbburst-shape-1" width="44.634989837777965" opacity="0.3653213235673308" transform="matrix(0.9152903896469949,-0.40279461592709037,0.40279461592709037,0.9152903896469949,477.11590322448194,-78.22302626784403)" fill="#db1f1f" filter="url(#bbburst-blur-2)"></use><use xlink:href="#bbburst-shape-5" width="27.293163973291318" opacity="0.6615034623335015" transform="matrix(0.7108896851436461,-0.7033035301748226,0.7033035301748226,0.7108896851436461,238.47912663149924,45.043800052703205)" fill="#db1f1f" filter="url(#bbburst-blur-1)"></use><use xlink:href="#bbburst-shape-10" width="26.317230509221552" opacity="0.619541220773861" transform="matrix(0.9997937412269928,0.02030948062686346,-0.02030948062686346,0.9997937412269928,282.0373197946184,-128.86392081617862)" fill="none" stroke="#db1f1f" filter="url(#bbburst-blur-1)"></use><use xlink:href="#bbburst-shape-9" width="28.37632097643242" opacity="0.5410245888862091" transform="matrix(0.9531578015857076,0.3024734786329221,-0.3024734786329221,0.9531578015857076,705.5515103336509,-44.41680966417283)" fill="none" stroke="#db1f1f" filter="url(#bbburst-blur-2)"></use><use xlink:href="#bbburst-shape-13" width="28.277908663409427" opacity="0.7422492376368177" transform="matrix(0.8470318160857375,0.531542192623029,-0.531542192623029,0.8470318160857375,714.5845753962053,31.992772291300525)" fill="none" stroke="#db1f1f" filter="url(#bbburst-blur-1)"></use><use xlink:href="#bbburst-shape-10" width="41.39908067302421" opacity="0.10735223321711451" transform="matrix(1.4529783212869554,-0.9753737734172172,0.9753737734172172,1.4529783212869554,317.68088274496074,-378.2003514493917)" fill="none" stroke="#db1f1f" filter="url(#bbburst-blur-4)"></use><use xlink:href="#bbburst-shape-1" width="27.483673230792917" opacity="0.743543252230498" transform="matrix(0.949306438294584,0.3143521690913729,-0.3143521690913729,0.949306438294584,537.247334911837,128.752541144286)" fill="#db1f1f" filter="url(#bbburst-blur-1)"></use><use xlink:href="#bbburst-shape-10" width="33.13055046206947" opacity="0.6419992794304095" transform="matrix(0.8218658089915625,0.5696811318717204,-0.5696811318717204,0.8218658089915625,711.519012694289,190.24418589156596)" fill="none" stroke="#db1f1f" filter="url(#bbburst-blur-1)"></use><use xlink:href="#bbburst-shape-13" width="36.64966808562374" opacity="0.11790238624675631" transform="matrix(1.0836456965554397,-0.6230666130815193,0.6230666130815193,1.0836456965554397,-224.87114168239327,-198.05259724647394)" fill="none" stroke="#db1f1f" filter="url(#bbburst-blur-3)"></use><use xlink:href="#bbburst-shape-13" width="19.889704207314466" opacity="0.8356646167237166" transform="matrix(0.7081651508977304,-0.7060468249726748,0.7060468249726748,0.7081651508977304,158.0895673425867,180.39160154285935)" fill="none" stroke="#db1f1f"></use><use xlink:href="#bbburst-shape-9" width="36.85345066717005" opacity="0.1873388341599913" transform="matrix(1.0742544934582576,-0.6391222756912345,0.6391222756912345,1.0742544934582576,60.83747395353771,341.9399488496555)" fill="none" stroke="#db1f1f" filter="url(#bbburst-blur-3)"></use><use xlink:href="#bbburst-shape-10" width="18.634462314811348" opacity="0.860470227708453" transform="matrix(0.9196151945911494,0.3928204346480493,-0.3928204346480493,0.9196151945911494,495.5694256109822,-5.18684465419841)" fill="none" stroke="#db1f1f"></use><use xlink:href="#bbburst-shape-1" width="36.10342685858463" opacity="0.36612563793378805" transform="matrix(0.8727773874570253,0.48811846097406486,-0.48811846097406486,0.8727773874570253,314.9178430778635,148.77765720270963)" fill="#db1f1f" filter="url(#bbburst-blur-2)"></use><use xlink:href="#bbburst-shape-13" width="30.709594875139814" opacity="0.5117979129849641" transform="matrix(0.9047552833173175,0.4259317754164398,-0.4259317754164398,0.9047552833173175,476.7155694748996,236.2567995428908)" fill="none" stroke="#db1f1f" filter="url(#bbburst-blur-2)"></use><use xlink:href="#bbburst-shape-2" width="26.489975511606012" opacity="0.6354619358057321" transform="matrix(0.7438274356738475,0.6683717124017654,-0.6683717124017654,0.7438274356738475,608.9130324781459,-63.05902898029274)" fill="#db1f1f" filter="url(#bbburst-blur-1)"></use><use xlink:href="#bbburst-shape-2" width="32.14770954648125" opacity="0.43357398131982805" transform="matrix(0.9679847493449073,0.251009013853441,-0.251009013853441,0.9679847493449073,563.6320592176999,251.19509617334836)" fill="#db1f1f" filter="url(#bbburst-blur-2)"></use><use xlink:href="#bbburst-shape-9" width="41.76539922252545" opacity="0.24380198540344644" transform="matrix(0.9539240306571104,0.8077926365936327,-0.8077926365936327,0.9539240306571104,804.9468066721149,-323.49898400325844)" fill="none" stroke="#db1f1f" filter="url(#bbburst-blur-3)"></use><use xlink:href="#bbburst-shape-10" width="28.759062959572674" opacity="0.3529746266451166" transform="matrix(0.9854979757225668,0.16968718232890517,-0.16968718232890517,0.9854979757225668,652.1525779274863,-209.6957241733402)" fill="none" stroke="#db1f1f" filter="url(#bbburst-blur-2)"></use><use xlink:href="#bbburst-shape-2" width="28.585250182117647" opacity="0.540781562662086" transform="matrix(0.9102754156736373,-0.4140032217509748,0.4140032217509748,0.9102754156736373,367.50023353679694,-104.31885849443043)" fill="#db1f1f" filter="url(#bbburst-blur-2)"></use><use xlink:href="#bbburst-shape-2" width="45.095393001697126" opacity="0.26290283980536233" transform="matrix(1.0452794377735182,0.6854858838574855,-0.6854858838574855,1.0452794377735182,540.5117437969409,-346.4324154929739)" fill="#db1f1f" filter="url(#bbburst-blur-3)"></use><use xlink:href="#bbburst-shape-13" width="31.587682998173662" opacity="0.09328433485156928" transform="matrix(1.4010677008705772,1.048574888874054,-1.048574888874054,1.4010677008705772,593.6149056957445,-530.5325700539595)" fill="none" stroke="#db1f1f" filter="url(#bbburst-blur-4)"></use><use xlink:href="#bbburst-shape-1" width="24.528865529307055" opacity="0.7491762069246879" transform="matrix(0.846482119597965,-0.5324171496119715,0.5324171496119715,0.846482119597965,88.1310591120741,137.9704829760089)" fill="#db1f1f" filter="url(#bbburst-blur-1)"></use><use xlink:href="#bbburst-shape-2" width="24.490003472125487" opacity="0.18875767716890346" transform="matrix(1.243553088332702,0.12679004889264375,-0.12679004889264375,1.243553088332702,421.8599983853984,-463.76304400163286)" fill="#db1f1f" filter="url(#bbburst-blur-3)"></use><use xlink:href="#bbburst-shape-9" width="29.77451072415072" opacity="0.5941125147415304" transform="matrix(0.8004231399662555,-0.5994353985264469,0.5994353985264469,0.8004231399662555,15.854654800740946,214.48405600382807)" fill="none" stroke="#db1f1f" filter="url(#bbburst-blur-1)"></use><use xlink:href="#bbburst-shape-13" width="52.87476005746079" opacity="-0.060342773353055046" transform="matrix(1.5330575606395516,0.8439398768667753,-0.8439398768667753,1.5330575606395516,354.04291363408646,96.16576434895626)" fill="none" stroke="#db1f1f" filter="url(#bbburst-blur-4)"></use><use xlink:href="#bbburst-shape-2" width="40.06430080322923" opacity="0.461701598823938" transform="matrix(0.9489988154570038,0.3152796350245343,-0.3152796350245343,0.9489988154570038,597.8804916185562,-210.47444497181465)" fill="#db1f1f" filter="url(#bbburst-blur-2)"></use><use xlink:href="#bbburst-shape-5" width="28.593609504240845" opacity="0.5218178175664392" transform="matrix(0.752355773058065,0.6587570043242056,-0.6587570043242056,0.752355773058065,464.5539881062107,-14.700522058123454)" fill="#db1f1f" filter="url(#bbburst-blur-2)"></use><use xlink:href="#bbburst-shape-9" width="22.730895040834795" opacity="0.9836273911322544" transform="matrix(0.9930264928818064,0.11789140950408376,-0.11789140950408376,0.9930264928818064,439.6584835364162,7.627394328926528)" fill="none" stroke="#db1f1f"></use><use xlink:href="#bbburst-shape-1" width="20.4866417197993" opacity="0.8811882226463711" transform="matrix(0.9412963065101883,0.3375814914213717,-0.3375814914213717,0.9412963065101883,546.2180965471276,-29.189647513833506)" fill="#db1f1f"></use><use xlink:href="#bbburst-shape-5" width="36.35694882928894" opacity="0.2020715728909772" transform="matrix(1.2167856588147097,0.28623881725379774,-0.28623881725379774,1.2167856588147097,849.1492014114668,-51.38690495003391)" fill="#db1f1f" filter="url(#bbburst-blur-3)"></use><use xlink:href="#bbburst-shape-9" width="24.46160184980462" opacity="0.6811544498107678" transform="matrix(0.9963432884745732,-0.08544033890191036,0.08544033890191036,0.9963432884745732,218.64774805219156,-46.320169806130366)" fill="none" stroke="#db1f1f" filter="url(#bbburst-blur-1)"></use><use xlink:href="#bbburst-shape-5" width="36.771614341917385" opacity="0.08106425642569315" transform="matrix(1.7272905416406914,-0.2810113605507911,0.2810113605507911,1.7272905416406914,42.03747351061858,68.2123933199232)" fill="#db1f1f" filter="url(#bbburst-blur-4)"></use><use xlink:href="#bbburst-shape-13" width="24.41881935886838" opacity="0.6160483259656354" transform="matrix(0.9423249537771266,-0.3346993897349326,0.3346993897349326,0.9423249537771266,292.2873877979288,-141.46472764404598)" fill="none" stroke="#db1f1f" filter="url(#bbburst-blur-1)"></use><use xlink:href="#bbburst-shape-9" width="57.55349996059906" opacity="-0.05662050317655387" transform="matrix(1.747230498925176,0.0984153627523731,-0.0984153627523731,1.747230498925176,48.23591330626394,-633.8765617419454)" fill="none" stroke="#db1f1f" filter="url(#bbburst-blur-4)"></use><use xlink:href="#bbburst-shape-10" width="26.128061947474613" opacity="0.732608392227766" transform="matrix(0.9802059028184263,-0.19798077704644412,0.19798077704644412,0.9802059028184263,188.15390949808267,21.217610079735152)" fill="none" stroke="#db1f1f" filter="url(#bbburst-blur-1)"></use><use xlink:href="#bbburst-shape-13" width="29.929536073370983" opacity="0.41821738159343" transform="matrix(0.8081842152505406,-0.5889297701932446,0.5889297701932446,0.8081842152505406,-30.79102763669735,272.6375275660153)" fill="none" stroke="#db1f1f" filter="url(#bbburst-blur-2)"></use><use xlink:href="#bbburst-shape-1" width="38.72773848124854" opacity="0.4183696201620666" transform="matrix(0.9694569248357404,0.24526163761997016,-0.24526163761997016,0.9694569248357404,321.2379413758509,-201.08507479734104)" fill="#db1f1f" filter="url(#bbburst-blur-2)"></use><use xlink:href="#bbburst-shape-1" width="33.64590981908746" opacity="0.489658309913501" transform="matrix(0.8979161271861249,0.4401665918025479,-0.4401665918025479,0.8979161271861249,331.5258292165164,23.02292456683398)" fill="#db1f1f" filter="url(#bbburst-blur-2)"></use><use xlink:href="#bbburst-shape-5" width="25.857419592524376" opacity="0.5225601791835346" transform="matrix(0.8635851509616287,-0.5042030216476107,0.5042030216476107,0.8635851509616287,381.702591408364,152.24591358431888)" fill="#db1f1f" filter="url(#bbburst-blur-2)"></use><use xlink:href="#bbburst-shape-10" width="28.847186531285594" opacity="0.3762131982635516" transform="matrix(0.8932192180155394,0.4496214280566579,-0.4496214280566579,0.8932192180155394,574.153498554491,-244.38485178738182)" fill="none" stroke="#db1f1f" filter="url(#bbburst-blur-2)"></use><use xlink:href="#bbburst-shape-13" width="49.20219037446091" opacity="0.20520816369063632" transform="matrix(1.0844295708264635,0.6217012995942119,-0.6217012995942119,1.0844295708264635,692.7304715446313,301.5268216704437)" fill="none" stroke="#db1f1f" filter="url(#bbburst-blur-3)"></use><use xlink:href="#bbburst-shape-10" width="36.75206113576546" opacity="0.3444475635124882" transform="matrix(0.9979814283522186,-0.06350644584658725,0.06350644584658725,0.9979814283522186,95.08857627412392,-135.19139282880633)" fill="none" stroke="#db1f1f" filter="url(#bbburst-blur-2)"></use><use xlink:href="#bbburst-shape-13" width="27.143125023449958" opacity="0.5894462676498045" transform="matrix(0.9996773638187856,-0.02540016276174965,0.02540016276174965,0.9996773638187856,398.46650834869376,183.88505242665752)" fill="none" stroke="#db1f1f" filter="url(#bbburst-blur-1)"></use><use xlink:href="#bbburst-shape-3" width="33.15939989757006" opacity="0.1850345988837453" transform="matrix(1.1505627180045463,0.48857489900525064,-0.48857489900525064,1.1505627180045463,930.2932263179343,-163.87581633479255)" fill="#db1f1f" filter="url(#bbburst-blur-3)"></use><use xlink:href="#bbburst-shape-10" width="19.316954952573024" opacity="0.7342108303274534" transform="matrix(0.8280047467220434,-0.5607210887827965,0.5607210887827965,0.8280047467220434,237.99113217654238,-22.567114452844976)" fill="none" stroke="#db1f1f" filter="url(#bbburst-blur-1)"></use><use xlink:href="#bbburst-shape-5" width="23.42722348474907" opacity="0.761940415378401" transform="matrix(0.9455236080567755,0.3255535387724995,-0.3255535387724995,0.9455236080567755,522.3701852222114,-89.10112819267414)" fill="#db1f1f" filter="url(#bbburst-blur-1)"></use><use xlink:href="#bbburst-shape-5" width="23.751181438864098" opacity="0.8433419416512347" transform="matrix(0.9999654457520224,0.008313080172784752,-0.008313080172784752,0.9999654457520224,371.49871345800784,67.52906404267782)" fill="#db1f1f"></use><use xlink:href="#bbburst-shape-5" width="44.285637884717886" opacity="0.15551064371537826" transform="matrix(1.1186446288914793,-0.557794042861919,0.557794042861919,1.1186446288914793,395.341437494595,-327.0913603996608)" fill="#db1f1f" filter="url(#bbburst-blur-3)"></use><use xlink:href="#bbburst-shape-2" width="38.436277550121304" opacity="0.30381251242326757" transform="matrix(1.1841411788822196,-0.40038689848124037,0.40038689848124037,1.1841411788822196,382.0998454548371,200.3707920340994)" fill="#db1f1f" filter="url(#bbburst-blur-3)"></use><use xlink:href="#bbburst-shape-13" width="34.672757033829804" opacity="0.20729500021635983" transform="matrix(1.1994759318766386,-0.35179182601173353,0.35179182601173353,1.1994759318766386,-114.84064657032184,-24.64479056166749)" fill="none" stroke="#db1f1f" filter="url(#bbburst-blur-3)"></use><use xlink:href="#bbburst-shape-10" width="43.4450656434917" opacity="0.08909995245615043" transform="matrix(1.4633133912783665,-0.9597988950323952,0.9597988950323952,1.4633133912783665,189.80157267937898,190.19077602271602)" fill="none" stroke="#db1f1f" filter="url(#bbburst-blur-4)"></use><use xlink:href="#bbburst-shape-13" width="35.645474216491735" opacity="0.08963613336888199" transform="matrix(1.6923874300187904,-0.4453367116176177,0.4453367116176177,1.6923874300187904,380.5831864778099,-632.5400578841277)" fill="none" stroke="#db1f1f" filter="url(#bbburst-blur-4)"></use><use xlink:href="#bbburst-shape-2" width="24.306821152265577" opacity="0.8799702266314343" transform="matrix(0.8819683497172899,-0.471308635712269,0.471308635712269,0.8819683497172899,149.8994183532584,71.12568864479363)" fill="#db1f1f"></use><use xlink:href="#bbburst-shape-1" width="36.29990962623716" opacity="0.46036838441492955" transform="matrix(0.9144984995450421,0.40458929092335927,-0.40458929092335927,0.9144984995450421,712.8907226825419,202.55474086867008)" fill="#db1f1f" filter="url(#bbburst-blur-2)"></use><use xlink:href="#bbburst-shape-9" width="43.60498495097275" opacity="0.38969658826049647" transform="matrix(0.9939001981904879,0.11028325365579716,-0.11028325365579716,0.9939001981904879,407.057401563791,273.9466860860633)" fill="none" stroke="#db1f1f" filter="url(#bbburst-blur-2)"></use><use xlink:href="#bbburst-shape-2" width="22.54268209908661" opacity="0.863957472213166" transform="matrix(0.8636255497328937,0.5041338213694427,-0.5041338213694427,0.8636255497328937,653.0574483587283,45.842671798967615)" fill="#db1f1f"></use></svg>