<svg xmlns="http://www.w3.org/2000/svg" version="1.1" xmlns:xlink="http://www.w3.org/1999/xlink"
    xmlns:svgjs="http://svgjs.dev/svgjs" viewBox="0 0 800 800">
    <g fill="none" stroke-width="0.5" stroke="#db1f1f" stroke-linecap="round" stroke-dasharray="18.5 27.5">
        <line x1="140" y1="400" x2="660" y2="400" transform="rotate(0, 400, 400)" opacity="0.60"></line>
        <line x1="231" y1="400" x2="569" y2="400" transform="rotate(7, 400, 400)" opacity="0.65"></line>
        <line x1="130.5" y1="400" x2="669.5" y2="400" transform="rotate(14, 400, 400)" opacity="0.95"></line>
        <line x1="76" y1="400" x2="724" y2="400" transform="rotate(21, 400, 400)" opacity="0.72"></line>
        <line x1="235.5" y1="400" x2="564.5" y2="400" transform="rotate(28, 400, 400)" opacity="0.15"></line>
        <line x1="238.5" y1="400" x2="561.5" y2="400" transform="rotate(35, 400, 400)" opacity="0.16"></line>
        <line x1="80.5" y1="400" x2="719.5" y2="400" transform="rotate(42, 400, 400)" opacity="0.41"></line>
        <line x1="256" y1="400" x2="544" y2="400" transform="rotate(49, 400, 400)" opacity="0.83"></line>
        <line x1="255.5" y1="400" x2="544.5" y2="400" transform="rotate(56, 400, 400)" opacity="0.35"></line>
        <line x1="128.5" y1="400" x2="671.5" y2="400" transform="rotate(63, 400, 400)" opacity="0.71"></line>
        <line x1="148" y1="400" x2="652" y2="400" transform="rotate(70, 400, 400)" opacity="0.21"></line>
        <line x1="180.5" y1="400" x2="619.5" y2="400" transform="rotate(77, 400, 400)" opacity="0.93"></line>
        <line x1="94" y1="400" x2="706" y2="400" transform="rotate(84, 400, 400)" opacity="1.00"></line>
        <line x1="163.5" y1="400" x2="636.5" y2="400" transform="rotate(91, 400, 400)" opacity="0.81"></line>
        <line x1="33" y1="400" x2="767" y2="400" transform="rotate(98, 400, 400)" opacity="1.00"></line>
        <line x1="192.5" y1="400" x2="607.5" y2="400" transform="rotate(105, 400, 400)" opacity="0.63"></line>
        <line x1="239" y1="400" x2="561" y2="400" transform="rotate(112, 400, 400)" opacity="0.31"></line>
        <line x1="203" y1="400" x2="597" y2="400" transform="rotate(119, 400, 400)" opacity="0.22"></line>
        <line x1="26.5" y1="400" x2="773.5" y2="400" transform="rotate(126, 400, 400)" opacity="0.78"></line>
        <line x1="163" y1="400" x2="637" y2="400" transform="rotate(133, 400, 400)" opacity="0.38"></line>
        <line x1="189" y1="400" x2="611" y2="400" transform="rotate(140, 400, 400)" opacity="0.10"></line>
        <line x1="207" y1="400" x2="593" y2="400" transform="rotate(147, 400, 400)" opacity="0.43"></line>
        <line x1="66" y1="400" x2="734" y2="400" transform="rotate(154, 400, 400)" opacity="0.36"></line>
        <line x1="221" y1="400" x2="579" y2="400" transform="rotate(161, 400, 400)" opacity="0.44"></line>
        <line x1="108" y1="400" x2="692" y2="400" transform="rotate(168, 400, 400)" opacity="0.60"></line>
        <line x1="180" y1="400" x2="620" y2="400" transform="rotate(175, 400, 400)" opacity="0.49"></line>
        <line x1="24.5" y1="400" x2="775.5" y2="400" transform="rotate(182, 400, 400)" opacity="0.57"></line>
        <line x1="223" y1="400" x2="577" y2="400" transform="rotate(189, 400, 400)" opacity="0.51"></line>
        <line x1="224" y1="400" x2="576" y2="400" transform="rotate(196, 400, 400)" opacity="0.92"></line>
        <line x1="197" y1="400" x2="603" y2="400" transform="rotate(203, 400, 400)" opacity="0.56"></line>
        <line x1="211.5" y1="400" x2="588.5" y2="400" transform="rotate(210, 400, 400)" opacity="0.34"></line>
        <line x1="227.5" y1="400" x2="572.5" y2="400" transform="rotate(217, 400, 400)" opacity="0.67"></line>
        <line x1="201.5" y1="400" x2="598.5" y2="400" transform="rotate(224, 400, 400)" opacity="0.09"></line>
        <line x1="88.5" y1="400" x2="711.5" y2="400" transform="rotate(231, 400, 400)" opacity="0.53"></line>
        <line x1="213.5" y1="400" x2="586.5" y2="400" transform="rotate(238, 400, 400)" opacity="0.14"></line>
        <line x1="228.5" y1="400" x2="571.5" y2="400" transform="rotate(245, 400, 400)" opacity="0.42"></line>
        <line x1="248" y1="400" x2="552" y2="400" transform="rotate(252, 400, 400)" opacity="0.23"></line>
        <line x1="149.5" y1="400" x2="650.5" y2="400" transform="rotate(259, 400, 400)" opacity="0.10"></line>
        <line x1="210.5" y1="400" x2="589.5" y2="400" transform="rotate(266, 400, 400)" opacity="0.60"></line>
        <line x1="168" y1="400" x2="632" y2="400" transform="rotate(273, 400, 400)" opacity="0.38"></line>
        <line x1="145" y1="400" x2="655" y2="400" transform="rotate(280, 400, 400)" opacity="0.21"></line>
        <line x1="165" y1="400" x2="635" y2="400" transform="rotate(287, 400, 400)" opacity="0.25"></line>
        <line x1="106.5" y1="400" x2="693.5" y2="400" transform="rotate(294, 400, 400)" opacity="0.14"></line>
        <line x1="34.5" y1="400" x2="765.5" y2="400" transform="rotate(301, 400, 400)" opacity="0.30"></line>
        <line x1="180.5" y1="400" x2="619.5" y2="400" transform="rotate(308, 400, 400)" opacity="0.89"></line>
        <line x1="93" y1="400" x2="707" y2="400" transform="rotate(315, 400, 400)" opacity="0.96"></line>
        <line x1="182.5" y1="400" x2="617.5" y2="400" transform="rotate(322, 400, 400)" opacity="0.94"></line>
        <line x1="139.5" y1="400" x2="660.5" y2="400" transform="rotate(329, 400, 400)" opacity="0.62"></line>
        <line x1="227" y1="400" x2="573" y2="400" transform="rotate(336, 400, 400)" opacity="0.52"></line>
        <line x1="111.5" y1="400" x2="688.5" y2="400" transform="rotate(343, 400, 400)" opacity="0.50"></line>
        <line x1="115.5" y1="400" x2="684.5" y2="400" transform="rotate(350, 400, 400)" opacity="0.19"></line>
        <line x1="241.5" y1="400" x2="558.5" y2="400" transform="rotate(357, 400, 400)" opacity="0.49"></line>
        <line x1="31" y1="400" x2="769" y2="400" transform="rotate(364, 400, 400)" opacity="0.46"></line>
        <line x1="55" y1="400" x2="745" y2="400" transform="rotate(371, 400, 400)" opacity="0.51"></line>
        <line x1="93" y1="400" x2="707" y2="400" transform="rotate(378, 400, 400)" opacity="0.76"></line>
    </g>
</svg>