<svg xmlns="http://www.w3.org/2000/svg" version="1.1" xmlns:xlink="http://www.w3.org/1999/xlink"
    xmlns:svgjs="http://svgjs.dev/svgjs" viewBox="0 0 800 800">
    <defs>
        <linearGradient x1="50%" y1="0%" x2="50%" y2="100%" id="wwwhirl-grad">
            <stop stop-color="#db1f1f" stop-opacity="1" offset="45%"></stop>
            <stop stop-color="#240000" stop-opacity="1" offset="100%"></stop>
        </linearGradient>
    </defs>
    <g stroke-width="1" stroke="url(#wwwhirl-grad)" fill="none" stroke-linecap="round">
        <path
            d="M52 523.617486000061C110 456.192486000061 109.99999999999997 348.16748600006105 226 321.34248600006106C342 294.517486000061 284 457.642486000061 400 443.142486000061C516 428.642486000061 458 258.99248600006104 574 277.84248600006106C690 296.692486000061 690 425.74248600006104 748 499.692486000061 "
            transform="rotate(76, 400, 400)"></path>
        <path
            d="M73.75 515.8914007544518C128.125 452.68046325445175 128.12499999999997 351.40702575445175 236.875 326.25858825445175C345.625 301.11015075445175 291.25 454.03983825445175 400 440.44608825445175C508.75 426.85233825445175 454.375 267.80546325445175 563.125 285.47733825445175C671.875 303.14921325445175 671.875 424.13358825445175 726.25 493.46171325445175 "
            transform="rotate(71.25, 400, 400)"></path>
        <path
            d="M95.5 508.1652773618698C146.25 449.16840236186977 146.25 354.6465273618698 247.75 331.1746523618698C349.25 307.70277736186983 298.5 450.43715236186983 400 437.74965236186983C501.5 425.06215236186983 450.75 276.6184023618698 552.25 293.1121523618698C653.75 309.6059023618698 653.75 422.5246523618698 704.5 487.23090236186977 "
            transform="rotate(66.5, 400, 400)"></path>
        <path
            d="M117.25 500.4392073750496C164.375 445.6563948750496 164.375 357.88608237504957 258.625 336.0907698750496C352.875 314.2954573750496 305.75 446.83451987504964 400 435.05326987504964C494.25 423.2720198750496 447.12500000000006 285.4313948750496 541.375 300.7470198750496C635.625 316.0626448750496 635.625 420.9157698750496 682.75 481.0001448750496 "
            transform="rotate(61.75, 400, 400)"></path>
        <path
            d="M139 492.71310687065125C182.5 442.1443568706512 182.5 361.12560687065127 269.5 341.00685687065123C356.5 320.88810687065126 313 443.23185687065126 400 432.35685687065126C486.99999999999994 421.48185687065126 443.50000000000006 294.24435687065125 530.5 308.38185687065123C617.5 322.5193568706512 617.5 419.30685687065125 661 474.7693568706512 "
            transform="rotate(57, 400, 400)"></path>
        <path
            d="M160.75 484.98701399564743C200.625 438.6323264956474 200.625 364.36513899564744 280.375 345.92295149564745C360.125 327.4807639956474 320.25 439.6292014956474 400 429.6604514956474C479.74999999999994 419.6917014956474 439.87500000000006 303.05732649564743 519.625 316.01670149564745C599.375 328.9760764956474 599.375 417.69795149564743 639.25 468.5385764956474 "
            transform="rotate(52.25, 400, 400)"></path>
        <path
            d="M182.5 477.2609211206436C218.75 435.1202961206436 218.75 367.6046711206436 291.25 350.8390461206436C363.75 334.0734211206436 327.5 436.0265461206436 400 426.9640461206436C472.49999999999994 417.9015461206436 436.25000000000006 311.8702961206436 508.75 323.6515461206436C581.25 335.4327961206436 581.25 416.0890461206436 617.5 462.3077961206436 "
            transform="rotate(47.5, 400, 400)"></path>
        <path
            d="M204.25 469.53482061624527C236.875 431.6082581162453 236.875 370.84419561624526 302.125 355.75513311624525C367.375 340.6660706162453 334.75 432.4238831162453 400 424.2676331162453C465.24999999999994 416.1113831162453 432.62500000000006 320.68325811624527 497.875 331.28638311624525C563.125 341.8895081162453 563.125 414.48013311624527 595.75 456.0770081162453 "
            transform="rotate(42.75, 400, 400)"></path>
        <path
            d="M226 461.80873918533325C255 428.0962391853333 255 374.08373918533323 313 360.67123918533326C371 347.25873918533324 342 428.82123918533324 400 421.57123918533324C458 414.32123918533324 429 329.49623918533325 487 338.92123918533326C545 348.3462391853333 545 412.87123918533325 574 449.8462391853333 "
            transform="rotate(38, 400, 400)"></path>
        <path
            d="M247.75 454.0826386809349C273.125 424.5842011809349 273.125 377.32326368093493 323.875 365.5873261809349C374.625 353.8513886809349 349.25 425.2185761809349 400 418.8748261809349C450.75 412.5310761809349 425.375 338.3092011809349 476.125 346.5560761809349C526.875 354.8029511809349 526.875 411.2623261809349 552.25 443.6154511809349 "
            transform="rotate(33.25, 400, 400)"></path>
        <path
            d="M269.5 446.3565572500229C291.25 421.0721822500229 291.25 380.5628072500229 334.75 370.5034322500229C378.25 360.44405725002287 356.5 421.61593225002287 400 416.17843225002287C443.5 410.74093225002287 421.75 347.1221822500229 465.25 354.1909322500229C508.75 361.2596822500229 508.75 409.6534322500229 530.5 437.3846822500229 "
            transform="rotate(28.5, 400, 400)"></path>
        <path
            d="M291.25 438.6304643750191C309.375 417.5601518750191 309.375 383.8023393750191 345.625 375.4195268750191C381.875 367.0367143750191 363.75 418.0132768750191 400 413.4820268750191C436.25 408.9507768750191 418.125 355.9351518750191 454.375 361.8257768750191C490.625 367.7164018750191 490.625 408.0445268750191 508.75 431.1539018750191 "
            transform="rotate(23.75, 400, 400)"></path>
        <path
            d="M313 430.9043638706207C327.5 414.04811387062074 327.5 387.0418638706207 356.5 380.3356138706207C385.5 373.62936387062075 371 414.41061387062075 400 410.78561387062075C429 407.16061387062075 414.5 364.7481138706207 443.5 369.4606138706207C472.5 374.17311387062074 472.5 406.4356138706207 487 424.92311387062074 "
            transform="rotate(19, 400, 400)"></path>
        <path
            d="M334.75 423.1782748103142C345.625 410.5360873103142 345.625 390.28139981031416 367.375 385.2517123103142C389.125 380.22202481031417 378.25 410.80796231031417 400 408.08921231031417C421.75 405.37046231031417 410.875 373.5610873103142 432.625 377.0954623103142C454.375 380.6298373103142 454.375 404.8267123103142 465.25 418.6923373103142 "
            transform="rotate(14.25, 400, 400)"></path>
        <path
            d="M356.5 415.45218575000763C363.75 407.0240607500076 363.75 393.52093575000765 378.25 390.1678107500076C392.75 386.81468575000764 385.5 407.20531075000764 400 405.39281075000764C414.5 403.58031075000764 407.25 382.37406075000763 421.75 384.7303107500076C436.25 387.0865607500076 436.25 403.21781075000763 443.5 412.4615607500076 "
            transform="rotate(9.5, 400, 400)"></path>
        <path
            d="M378.25 407.7260928750038C381.875 403.5120303750038 381.875 396.7604678750038 389.125 395.08390537500384C396.375 393.4073428750038 392.75 403.6026553750038 400 402.6964053750038C407.25 401.7901553750038 403.625 391.1870303750038 410.875 392.36515537500384C418.125 393.5432803750038 418.125 401.6089053750038 421.75 406.2307803750038 "
            transform="rotate(4.75, 400, 400)"></path>
    </g>
</svg>